<svg id="visual" viewBox="0 0 900 600" width="900" height="600" xmlns="http://www.w3.org/2000/svg" xmlns:xlink="http://www.w3.org/1999/xlink" version="1.1"><rect x="0" y="0" width="900" height="600" fill="#21000e"></rect><defs><linearGradient id="grad1_0" x1="33.3%" y1="0%" x2="100%" y2="100%"><stop offset="20%" stop-color="#8943a5" stop-opacity="1"></stop><stop offset="80%" stop-color="#8943a5" stop-opacity="1"></stop></linearGradient></defs><defs><linearGradient id="grad1_1" x1="33.3%" y1="0%" x2="100%" y2="100%"><stop offset="20%" stop-color="#8943a5" stop-opacity="1"></stop><stop offset="80%" stop-color="#21000e" stop-opacity="1"></stop></linearGradient></defs><defs><linearGradient id="grad2_0" x1="0%" y1="0%" x2="66.7%" y2="100%"><stop offset="20%" stop-color="#8943a5" stop-opacity="1"></stop><stop offset="80%" stop-color="#8943a5" stop-opacity="1"></stop></linearGradient></defs><defs><linearGradient id="grad2_1" x1="0%" y1="0%" x2="66.7%" y2="100%"><stop offset="20%" stop-color="#21000e" stop-opacity="1"></stop><stop offset="80%" stop-color="#8943a5" stop-opacity="1"></stop></linearGradient></defs><g transform="translate(900, 0)"><path d="M0 378.6C-56.6 380.3 -113.2 381.9 -144.9 349.8C-176.6 317.6 -183.3 251.6 -214.3 214.3C-245.2 176.9 -300.3 168.3 -331.7 137.4C-363.1 106.5 -370.8 53.2 -378.6 0L0 0Z" fill="#5c1b4b"></path><path d="M0 189.3C-28.3 190.1 -56.6 191 -72.4 174.9C-88.3 158.8 -91.7 125.8 -107.1 107.1C-122.6 88.5 -150.1 84.2 -165.8 68.7C-181.5 53.2 -185.4 26.6 -189.3 0L0 0Z" fill="#8943a5"></path></g><g transform="translate(0, 600)"><path d="M0 -378.6C55 -378.6 110.1 -378.6 144.9 -349.8C179.7 -320.9 194.2 -263.1 226.3 -226.3C258.4 -189.4 308 -173.5 336.3 -139.3C364.6 -105.1 371.6 -52.5 378.6 0L0 0Z" fill="#5c1b4b"></path><path d="M0 -189.3C27.5 -189.3 55 -189.3 72.4 -174.9C89.8 -160.4 97.1 -131.6 113.1 -113.1C129.2 -94.7 154 -86.8 168.1 -69.6C182.3 -52.5 185.8 -26.3 189.3 0L0 0Z" fill="#8943a5"></path></g></svg>