<svg id="visual" viewBox="0 0 900 600" width="900" height="600" xmlns="http://www.w3.org/2000/svg" xmlns:xlink="http://www.w3.org/1999/xlink" version="1.1"><rect x="0" y="0" width="900" height="600" fill="#002233"></rect><path d="M375 0L357 20C339 40 303 80 300.5 120C298 160 329 200 345.8 240C362.7 280 365.3 320 336.8 360C308.3 400 248.7 440 216.2 480C183.7 520 178.3 560 175.7 580L173 600L0 600L0 580C0 560 0 520 0 480C0 440 0 400 0 360C0 320 0 280 0 240C0 200 0 160 0 120C0 80 0 40 0 20L0 0Z" fill="#00a6ff" stroke-linecap="round" stroke-linejoin="miter"></path></svg>